<svg xmlns="http://www.w3.org/2000/svg" viewBox="0 0 32 32" width="32" height="32">
  <!-- Calendar base -->
  <rect x="4" y="6" width="24" height="22" rx="2" fill="#3b82f6" stroke="#1e40af" stroke-width="1"/>
  
  <!-- Calendar header -->
  <rect x="4" y="6" width="24" height="6" rx="2" fill="#1e40af"/>
  
  <!-- Calendar rings -->
  <circle cx="10" cy="9" r="1" fill="white"/>
  <circle cx="22" cy="9" r="1" fill="white"/>
  
  <!-- Calendar grid lines -->
  <line x1="8" y1="12" x2="24" y2="12" stroke="white" stroke-width="0.5" opacity="0.3"/>
  <line x1="8" y1="16" x2="24" y2="16" stroke="white" stroke-width="0.5" opacity="0.3"/>
  <line x1="8" y1="20" x2="24" y2="20" stroke="white" stroke-width="0.5" opacity="0.3"/>
  <line x1="8" y1="24" x2="24" y2="24" stroke="white" stroke-width="0.5" opacity="0.3"/>
  
  <line x1="12" y1="12" x2="12" y2="26" stroke="white" stroke-width="0.5" opacity="0.3"/>
  <line x1="16" y1="12" x2="16" y2="26" stroke="white" stroke-width="0.5" opacity="0.3"/>
  <line x1="20" y1="12" x2="20" y2="26" stroke="white" stroke-width="0.5" opacity="0.3"/>
  
  <!-- Event dots -->
  <circle cx="10" cy="14" r="1.5" fill="#f59e0b"/>
  <circle cx="18" cy="18" r="1.5" fill="#10b981"/>
  <circle cx="14" cy="22" r="1.5" fill="#ef4444"/>
  
  <!-- Plus icon for adding events -->
  <circle cx="26" cy="26" r="4" fill="#10b981"/>
  <line x1="24" y1="26" x2="28" y2="26" stroke="white" stroke-width="1.5"/>
  <line x1="26" y1="24" x2="26" y2="28" stroke="white" stroke-width="1.5"/>
</svg>
